<svg viewBox="0 0 112 72" fill="none" xmlns="http://www.w3.org/2000/svg">
<path d="M45.6301 30.3999H41.1301C40.9778 30.386 40.826 30.4328 40.708 30.5302C40.59 30.6276 40.5153 30.7677 40.5001 30.9199L38.6101 42.4399C38.5101 42.6499 38.7201 42.8599 39.0301 42.8599H41.2301C41.3825 42.8738 41.5342 42.827 41.6522 42.7296C41.7702 42.6322 41.8449 42.4922 41.8601 42.3399L42.2801 39.1899C42.3115 39.0451 42.3907 38.9151 42.505 38.8207C42.6193 38.7264 42.762 38.6733 42.9101 38.6699H44.3701C47.3101 38.6699 49.0901 37.1999 49.5001 34.3799C49.6281 33.8767 49.6387 33.3507 49.5312 32.8427C49.4237 32.3347 49.201 31.8582 48.8801 31.4499C48.4395 31.0612 47.9235 30.7673 47.3644 30.5867C46.8052 30.406 46.2149 30.3425 45.6301 30.3999ZM46.1501 34.6899C45.8401 36.3699 44.6901 36.3699 43.4301 36.3699H42.8001L43.2201 33.3699C43.2201 33.1599 43.4301 33.0599 43.6401 33.0599H44.0001C44.6945 32.9468 45.4062 33.0927 46.0001 33.4699C46.2601 33.6399 46.2601 34.1699 46.1501 34.6899Z" fill="#253C7F"/>
<path d="M59.1401 34.5899H56.9401C56.7301 34.5899 56.6201 34.6899 56.5201 34.8999L56.4201 35.5299L56.3101 35.3199C55.967 34.9835 55.5553 34.7253 55.103 34.5631C54.6508 34.4008 54.1688 34.3383 53.6901 34.3799C52.4917 34.4019 51.3424 34.8597 50.4571 35.6677C49.5718 36.4757 49.0112 37.5785 48.8801 38.7699C48.7665 39.3567 48.7818 39.9611 48.9252 40.5413C49.0685 41.1215 49.3363 41.6636 49.7101 42.1299C50.0382 42.5281 50.458 42.8408 50.9335 43.041C51.409 43.2413 51.926 43.3233 52.4401 43.2799C52.9902 43.2795 53.5344 43.1657 54.0385 42.9454C54.5427 42.7252 54.996 42.4033 55.3701 41.9999L55.2601 42.6299C55.1601 42.8399 55.3701 43.0499 55.6801 43.0499H57.5701C57.7235 43.0611 57.8751 43.012 57.9928 42.913C58.1105 42.814 58.1849 42.673 58.2001 42.5199L59.3501 35.0899C59.5601 34.7999 59.3501 34.5899 59.1401 34.5899ZM56.1401 38.7699C56.0707 39.3567 55.7855 39.8966 55.3401 40.2848C54.8947 40.6729 54.3208 40.8815 53.7301 40.8699C53.4542 40.8885 53.1778 40.841 52.9239 40.7315C52.67 40.6219 52.4459 40.4534 52.2701 40.2399C52.1114 40.0144 52.0011 39.7586 51.946 39.4884C51.8909 39.2182 51.8923 38.9396 51.9501 38.6699C52.0218 38.085 52.3079 37.5475 52.7531 37.1614C53.1983 36.7753 53.7709 36.5681 54.3601 36.5799C54.6364 36.5626 54.9129 36.6095 55.168 36.7171C55.423 36.8247 55.6497 36.99 55.8301 37.1999C55.9947 37.4223 56.1048 37.6802 56.1517 37.9528C56.1986 38.2255 56.1809 38.5054 56.1001 38.7699H56.1401Z" fill="#253C7F"/>
<path d="M70.6601 34.5899H68.4601C68.3518 34.588 68.245 34.6159 68.1516 34.6706C68.0581 34.7252 67.9814 34.8046 67.9301 34.8999L65.0001 39.2999L63.7501 35.1099C63.711 34.9772 63.6265 34.8623 63.5113 34.7855C63.3962 34.7088 63.2577 34.6749 63.1201 34.6899H61.0001C60.9388 34.6892 60.8784 34.7046 60.8249 34.7346C60.7714 34.7646 60.7268 34.808 60.6954 34.8607C60.664 34.9133 60.647 34.9733 60.646 35.0346C60.6451 35.0959 60.6603 35.1564 60.6901 35.2099L63.1001 42.2099L60.9001 45.3499C60.8505 45.4064 60.8187 45.4763 60.8088 45.5508C60.799 45.6253 60.8114 45.7011 60.8446 45.7685C60.8778 45.8359 60.9302 45.892 60.9953 45.9297C61.0603 45.9673 61.1351 45.9848 61.2101 45.9799H63.4101C63.5173 45.9835 63.6234 45.9562 63.7156 45.9013C63.8078 45.8463 63.8822 45.766 63.9301 45.6699L71.1601 35.1899C71.1801 34.9999 71.0001 34.5899 70.6601 34.5899Z" fill="#253C7F"/>
<path d="M77.8799 30.4H73.3799C73.2275 30.3861 73.0758 30.4329 72.9578 30.5303C72.8398 30.6277 72.7651 30.7678 72.7499 30.92L70.8699 42.44C70.7599 42.65 70.9699 42.86 71.2799 42.86H73.5899C73.6462 42.8645 73.7028 42.8568 73.7558 42.8373C73.8089 42.8178 73.857 42.787 73.8969 42.747C73.9369 42.7071 73.9677 42.6589 73.9872 42.6059C74.0067 42.5529 74.0144 42.4963 74.0099 42.44L74.5299 39.09C74.5613 38.9452 74.6405 38.8151 74.7548 38.7208C74.8691 38.6265 75.0118 38.5734 75.1599 38.57H76.6199C79.5599 38.57 81.3399 37.1 81.7599 34.27C81.888 33.7661 81.8978 33.2394 81.7885 32.7311C81.6793 32.2228 81.4538 31.7467 81.1299 31.34C80.1887 30.6585 79.0396 30.3262 77.8799 30.4ZM78.4099 34.69C78.0899 36.37 76.9399 36.37 75.6799 36.37H75.0499L75.4699 33.37C75.4699 33.16 75.6799 33.06 75.8899 33.06H76.2099C76.9042 32.9497 77.615 33.0954 78.2099 33.47C78.3246 33.649 78.4015 33.8495 78.4359 34.0593C78.4703 34.2691 78.4615 34.4837 78.4099 34.69Z" fill="#159AD6"/>
<path d="M91.39 34.5899H89.19C88.98 34.5899 88.88 34.6899 88.77 34.8999L88.67 35.5299L88.56 35.3199C88.2169 34.9835 87.8051 34.7253 87.3529 34.5631C86.9006 34.4008 86.4186 34.3383 85.94 34.3799C84.7422 34.404 83.5941 34.8626 82.7092 35.6702C81.8243 36.4778 81.2631 37.5794 81.13 38.7699C81.0197 39.3595 81.0405 39.9661 81.1909 40.5468C81.3412 41.1275 81.6174 41.6679 82 42.1299C82.326 42.528 82.744 42.8407 83.2179 43.041C83.6918 43.2414 84.2073 43.3234 84.72 43.2799C85.2651 43.2754 85.8035 43.1596 86.3022 42.9395C86.8009 42.7194 87.2493 42.3996 87.62 41.9999L87.51 42.6299C87.41 42.8399 87.62 43.0499 87.93 43.0499H89.82C89.9733 43.0611 90.125 43.012 90.2427 42.913C90.3604 42.814 90.4347 42.673 90.45 42.5199L91.6 35.0899C91.81 34.7999 91.6 34.5899 91.39 34.5899ZM88.39 38.7699C88.3206 39.3567 88.0354 39.8966 87.59 40.2848C87.1446 40.6729 86.5707 40.8815 85.98 40.8699C85.7042 40.8877 85.4281 40.8398 85.1743 40.7303C84.9205 40.6208 84.6963 40.4528 84.52 40.2399C84.3613 40.0144 84.2509 39.7586 84.1959 39.4884C84.1408 39.2182 84.1422 38.9396 84.2 38.6699C84.2717 38.085 84.5578 37.5475 85.003 37.1614C85.4482 36.7753 86.0208 36.5681 86.61 36.5799C86.873 36.5748 87.1339 36.6277 87.3741 36.7348C87.6144 36.842 87.8281 37.0008 88 37.1999C88.3154 37.6583 88.4408 38.221 88.35 38.7699H88.39Z" fill="#159AD6"/>
<path d="M93.9 30.71L92 42.54C91.89 42.75 92.1 42.96 92.42 42.96H94.3C94.4524 42.9739 94.6041 42.9271 94.7221 42.8297C94.8401 42.7323 94.9148 42.5922 94.93 42.44L96.81 30.92C96.92 30.71 96.71 30.5 96.4 30.5H94.3C94.11 30.4 94 30.5 93.9 30.71Z" fill="#159AD6"/>
<path d="M19.8699 45.2699L20.1899 43.0699H15.6799L18.2999 26.8399C18.2999 26.8107 18.3115 26.7827 18.3321 26.7621C18.3528 26.7415 18.3808 26.7299 18.4099 26.7299C18.4231 26.7299 18.4361 26.7273 18.4482 26.7223C18.4603 26.7172 18.4714 26.7099 18.4806 26.7006C18.4899 26.6913 18.4973 26.6803 18.5023 26.6682C18.5073 26.656 18.5099 26.643 18.5099 26.6299H24.6899C26.7799 26.6299 28.1399 27.0499 28.8799 27.8799C29.2076 28.2287 29.4235 28.6675 29.4999 29.1399C29.6109 29.6944 29.6109 30.2654 29.4999 30.8199V31.3399L29.8199 31.5499C30.1024 31.6604 30.3532 31.839 30.5499 32.0699C30.8227 32.4555 31.0351 32.8803 31.1799 33.3299C31.2921 33.9559 31.2579 34.5993 31.0799 35.2099C30.9948 35.9729 30.7045 36.6986 30.2399 37.3099C29.9084 37.8046 29.5227 38.2608 29.0899 38.6699C28.603 39.0552 28.0239 39.3068 27.4099 39.3999C26.7255 39.5753 26.0255 39.6825 25.3199 39.7199H24.8999C24.5795 39.7265 24.2675 39.8236 23.9999 39.9999C23.8683 40.0959 23.7622 40.2226 23.6907 40.369C23.6193 40.5154 23.5847 40.6771 23.5899 40.8399L23.4799 41.0499L22.7999 44.9999V45.1099C22.7999 45.2099 22.7999 45.2099 22.6999 45.2099H22.5899C21.6857 45.2916 20.7769 45.3116 19.8699 45.2699Z" fill="#253C7F"/>
<path d="M30.3401 31C30.3401 31.1 30.2401 31.31 30.2401 31.42C29.4001 35.63 26.5701 37.1 23.0001 37.1H21.1301C20.9233 37.0913 20.7211 37.1622 20.5649 37.2979C20.4087 37.4337 20.3103 37.624 20.2901 37.83L19.3501 43.7L19.0001 45.37C18.9849 45.4333 18.9844 45.4993 18.9984 45.5629C19.0125 45.6265 19.0408 45.686 19.0813 45.7371C19.1217 45.7881 19.1732 45.8293 19.2319 45.8575C19.2906 45.8857 19.3549 45.9003 19.4201 45.9H22.7001C22.8873 45.8918 23.0676 45.8273 23.2175 45.7149C23.3674 45.6025 23.4798 45.4474 23.5401 45.27V45.16L24.2701 41.16L24.3701 40.95C24.4107 40.7622 24.5184 40.5956 24.6731 40.4815C24.8277 40.3673 25.0186 40.3135 25.2101 40.33H25.6301C28.7701 40.33 31.1801 39.07 31.9101 35.4C32.0997 34.7833 32.1415 34.1306 32.032 33.4948C31.9226 32.8589 31.665 32.2578 31.2801 31.74C31.0174 31.435 30.6982 31.1837 30.3401 31Z" fill="#159AD6"/>
<path d="M29.4999 30.71C29.3788 30.6306 29.234 30.5953 29.0899 30.6101C28.9799 30.6101 28.7699 30.5001 28.6699 30.5001C28.1513 30.4138 27.6253 30.3803 27.0999 30.4001H22.1699C22.0699 30.4001 21.8599 30.4001 21.8599 30.5001C21.7383 30.5557 21.6346 30.6441 21.5604 30.7554C21.4862 30.8667 21.4445 30.9964 21.4399 31.13L20.3899 37.62V37.8301C20.4261 37.631 20.529 37.4503 20.6817 37.3176C20.8344 37.1849 21.0278 37.1081 21.2299 37.1H23.1199C26.6799 37.1 29.4999 35.6301 30.3399 31.4501C30.3399 31.3401 30.4499 31.1301 30.4499 31.0301L29.8199 30.71H29.4999Z" fill="#252E64"/>
<path d="M21.44 31.1299C21.5195 30.8854 21.6648 30.6674 21.86 30.4999C21.9018 30.4625 21.9509 30.4342 22.0044 30.417C22.0578 30.3997 22.1142 30.3939 22.17 30.3999H27.1C27.72 30.3999 28.25 30.4999 28.67 30.4999C28.77 30.4999 28.98 30.61 29.09 30.61C29.2 30.61 29.4 30.7099 29.5 30.7099C29.6 30.7099 29.61 30.8199 29.71 30.8199C29.9302 30.901 30.1414 31.0049 30.34 31.1299C30.5185 30.5145 30.5349 29.8633 30.3878 29.2396C30.2406 28.6159 29.9348 28.0407 29.5 27.5699C28.56 26.5199 26.89 25.9999 24.79 25.9999H18.61C18.4043 25.9915 18.2032 26.0626 18.0486 26.1986C17.8941 26.3345 17.7978 26.5248 17.78 26.7299L15.16 43.1699C15.1433 43.2468 15.1443 43.3264 15.1629 43.4028C15.1815 43.4792 15.2171 43.5505 15.2672 43.6111C15.3172 43.6717 15.3804 43.7202 15.4519 43.753C15.5234 43.7857 15.6014 43.8017 15.68 43.7999H19.56L20.5 37.7299L21.44 31.1299Z" fill="#253C7F"/>
</svg>
