<svg viewBox="0 0 112 72" fill="none" xmlns="http://www.w3.org/2000/svg">
<path d="M78.1402 44.94L77.6902 44.49V44.94V44.49L78.1402 44.94Z" fill="#F5931E"/>
<path d="M61.92 47H49.73V25H61.92V47Z" fill="#F06022"/>
<path d="M50.5301 36.3901C50.5684 34.2274 51.0683 32.0979 51.9961 30.1439C52.9239 28.19 54.2583 26.4567 55.9101 25.0601C53.5031 23.0816 50.5048 21.9625 47.3901 21.8801C43.6611 21.8801 40.0849 23.3614 37.4482 25.9982C34.8114 28.635 33.3301 32.2112 33.3301 35.9401C33.3301 39.6691 34.8114 43.2453 37.4482 45.882C40.0849 48.5188 43.6611 50.0001 47.3901 50.0001C48.9494 50.0624 50.5056 49.8143 51.9682 49.2701C53.4308 48.7259 54.7707 47.8965 55.9101 46.8301C52.7701 45.0101 50.5301 40.9301 50.5301 36.3901Z" fill="#E91D25"/>
<path d="M78.5001 36.2201C78.4739 39.8968 77.0025 43.4156 74.4035 46.0165C71.8045 48.6173 68.2868 50.0913 64.6101 50.1201C63.0546 50.1858 61.5013 49.944 60.0394 49.4086C58.5774 48.8733 57.2354 48.0548 56.0901 47.0001C57.7669 45.7533 59.1274 44.13 60.0619 42.261C60.9963 40.392 61.4787 38.3297 61.4701 36.2401C61.4312 34.0905 60.9307 31.9743 60.0025 30.035C59.0743 28.0957 57.74 26.3786 56.0901 25.0001C58.7801 23.2101 61.4701 21.8601 64.6101 21.8601C68.3119 22.0541 71.8028 23.6433 74.3799 26.3077C76.9571 28.9721 78.4293 32.5139 78.5001 36.2201Z" fill="#F59D1E"/>
</svg>
