<svg viewBox="0 0 112 72" fill="none" xmlns="http://www.w3.org/2000/svg">
<path d="M51 37.6599H23.5V46.8199H51V37.6599Z" fill="#84B740"/>
<path d="M51 25.1599H23.5V34.3299H51V25.1599Z" fill="#259BD6"/>
<path d="M78.49 45H78.37C78.0794 45.0766 77.7805 45.1169 77.48 45.12C76.76 45.12 75.91 44.75 75.91 43.02C75.91 42.13 76.06 40.95 77.4 40.95C77.7396 40.9672 78.0757 41.0277 78.4 41.13H78.5V45H78.49ZM78.71 36.37H78.49V39.57L78.3 39.51H78.24C77.8395 39.3772 77.4218 39.3031 77 39.29C74.32 39.29 73.76 41.29 73.76 43.01C73.7045 43.4972 73.7582 43.9906 73.9173 44.4544C74.0764 44.9182 74.3368 45.3408 74.6797 45.6913C75.0225 46.0418 75.4392 46.3116 75.8994 46.4809C76.3596 46.6501 76.8517 46.7148 77.34 46.67C78.1529 46.696 78.9643 46.5844 79.74 46.34C79.8765 46.3268 80.0088 46.2856 80.1287 46.2191C80.2486 46.1526 80.3536 46.0622 80.437 45.9534C80.5205 45.8446 80.5807 45.7198 80.6139 45.5867C80.6471 45.4537 80.6526 45.3153 80.63 45.18V36L78.69 36.33" fill="#27292D"/>
<path d="M86.4501 45H86.3401L85.9301 45.11C85.603 45.1953 85.2678 45.2456 84.9301 45.26C84.3001 45.26 83.9301 44.95 83.9301 44.42C83.9301 44.08 84.0801 43.5 85.1101 43.5H86.4401L86.4501 45ZM85.5101 39.23C84.5845 39.2439 83.6667 39.4025 82.7901 39.7L82.1001 39.9L82.3301 41.45L83.0001 41.23C83.7214 40.9986 84.4727 40.874 85.2301 40.86C85.5201 40.86 86.4201 40.86 86.4201 41.86V42.28H85.1701C82.8901 42.28 81.8401 43.01 81.8401 44.57C81.8401 45.9 82.8401 46.7 84.4401 46.7C85.0501 46.6832 85.6568 46.6028 86.2501 46.46H86.3201H86.5201L88.5201 46.81V41.74C88.5201 40.09 87.5201 39.25 85.5201 39.25" fill="#27292D"/>
<path d="M70.59 45H70.47L70.07 45.11C69.7431 45.196 69.4078 45.2463 69.07 45.26C68.44 45.26 68.07 44.95 68.07 44.42C68.07 44.08 68.23 43.5 69.25 43.5H70.58V45H70.59ZM69.66 39.23C68.731 39.243 67.8099 39.4016 66.93 39.7L66.25 39.9L66.47 41.45L67.14 41.23C67.8617 41.0001 68.6128 40.8755 69.37 40.86C69.67 40.86 70.56 40.86 70.56 41.86V42.28H69.32C67 42.27 66 43 66 44.56C66 45.89 67 46.69 68.61 46.69C69.22 46.6726 69.8266 46.5922 70.42 46.45H70.49H70.68L72.68 46.81V41.71C72.68 40.05 71.68 39.22 69.68 39.22" fill="#27292D"/>
<path d="M62 39.2601C61.2373 39.2679 60.4846 39.4348 59.79 39.7501H59.71L59.63 39.6901C59.0292 39.3269 58.3303 39.1591 57.63 39.2101C56.8374 39.2151 56.0495 39.333 55.29 39.5601C54.59 39.7801 54.29 40.1101 54.29 40.7401V46.6001H56.47V41.2201H56.57C56.8895 41.1003 57.2289 41.0426 57.57 41.0501C58.2 41.0501 58.51 41.3801 58.51 42.0501V46.6601H60.65V41.9601C60.6533 41.8014 60.6331 41.643 60.59 41.4901L60.51 41.3501L60.66 41.2901C60.9881 41.1176 61.3498 41.0186 61.72 41.0001C61.8568 40.9752 61.9976 40.9839 62.1303 41.0254C62.263 41.0668 62.3837 41.1398 62.482 41.2381C62.5803 41.3364 62.6534 41.4571 62.6948 41.5898C62.7363 41.7225 62.7449 41.8633 62.72 42.0001V46.6101H64.8V41.7901C64.8 40.0901 63.89 39.2601 61.99 39.2601" fill="#27292D"/>
<path d="M84.8499 31.14C84.4264 31.1339 84.0044 31.0871 83.5899 31H83.4599V27.86C83.4754 27.7104 83.4754 27.5595 83.4599 27.41L83.3899 27.28L83.5299 27.22H83.6399L83.7899 27.17C84.1617 27.0678 84.5445 27.0107 84.9299 27C86.2599 27 86.4199 28.18 86.4199 29.07C86.4199 30.8 85.5499 31.17 84.8399 31.17L84.8499 31.14ZM84.8399 25.17C83.5899 25.17 82.2999 25.52 81.8399 26.17C81.5797 26.5229 81.4427 26.9515 81.4499 27.39V30.63C81.4605 30.7703 81.4365 30.9111 81.3799 31.04L81.3099 31.18H77.3099V28.93C77.3099 26.55 75.8499 25.24 73.8199 25.24H71.8199C71.7299 25.82 71.6699 26.24 71.5899 26.81H73.5899C74.5899 26.81 75.1799 27.69 75.1799 29.05V31.32L74.9999 31.24C74.846 31.2025 74.6883 31.1823 74.5299 31.18H71.1599C71.0899 31.61 71.0099 32.18 70.9199 32.74H81.4099L82.5499 32.54C83.2481 32.8103 83.9912 32.9461 84.7399 32.94C85.2513 32.9676 85.7627 32.8851 86.2395 32.6982C86.7163 32.5113 87.1474 32.2243 87.5038 31.8565C87.8602 31.4888 88.1336 31.0488 88.3054 30.5664C88.4773 30.0839 88.5436 29.5702 88.4999 29.06C88.5405 28.5578 88.4755 28.0528 88.3091 27.5773C88.1428 27.1018 87.8787 26.6664 87.534 26.2991C87.1893 25.9317 86.7715 25.6406 86.3075 25.4444C85.8435 25.2482 85.3436 25.1513 84.8399 25.16" fill="#27292D"/>
<path d="M66.4501 33.69H66.5501C68.8301 33.69 69.8901 32.94 69.8901 31.09C69.893 30.7563 69.8258 30.4256 69.6927 30.1196C69.5596 29.8136 69.3636 29.5389 69.1175 29.3136C68.8714 29.0882 68.5806 28.9171 68.264 28.8114C67.9475 28.7057 67.6122 28.6677 67.2801 28.7H65.1801C65.0453 28.7141 64.909 28.698 64.7813 28.6527C64.6535 28.6075 64.5375 28.5342 64.4416 28.4384C64.3458 28.3426 64.2726 28.2265 64.2273 28.0988C64.1821 27.971 64.1659 27.8348 64.1801 27.7C64.1801 27.3 64.3401 26.79 65.3601 26.79H70.0001C70.1001 26.19 70.1501 25.79 70.2401 25.22H65.4201C63.2001 25.22 62.0801 26.15 62.0801 27.7C62.0801 29.25 63.0801 30.04 64.6901 30.04H66.7801C67.0453 30.04 67.2997 30.1453 67.4872 30.3329C67.6747 30.5204 67.7801 30.7748 67.7801 31.04C67.7903 31.192 67.7655 31.3444 67.7078 31.4854C67.6501 31.6265 67.5609 31.7525 67.4471 31.8538C67.3332 31.9551 67.1977 32.029 67.0509 32.07C66.9041 32.1109 66.7499 32.1177 66.6001 32.09H58.3201C57.3201 32.09 56.5601 31.5 56.5601 30.14V29.2C56.5601 27.78 57.1201 26.89 58.3201 26.89H60.3201C60.4101 26.29 60.4701 25.89 60.5501 25.33H57.8201C55.8201 25.33 54.3801 26.7 54.3301 29.07V30.14C54.2875 30.6098 54.3484 31.0834 54.5084 31.5272C54.6684 31.971 54.9238 32.3744 55.2564 32.709C55.5891 33.0435 55.991 33.3012 56.4339 33.4637C56.8768 33.6263 57.35 33.6899 57.8201 33.65H66.4501V33.69Z" fill="#27292D"/>
</svg>
