<?xml version="1.0" encoding="utf-8"?>
<!-- Generator: Adobe Illustrator 24.0.0, SVG Export Plug-In . SVG Version: 6.00 Build 0)  -->
<svg version="1.1" id="Layer_1" xmlns="http://www.w3.org/2000/svg" xmlns:xlink="http://www.w3.org/1999/xlink" x="0px" y="0px"
	 viewBox="0 0 112 72" style="enable-background:new 0 0 112 72;" xml:space="preserve">
<style type="text/css">
	.st0{fill:#F0915A;}
	.st1{fill:#555A6E;}
	.st2{fill:#463C4B;}
	.st3{fill:#78AF41;}
	.st4{fill:#466932;}
	.st5{fill:#FAB991;}
</style>
<g>
	<g>
		<path class="st0" d="M49.1,20.2c-1.2,0-2.3,0.5-3.2,1.3L33.9,33.6v11.1h33.5c3.7,0,6.7-3,6.7-6.7h4.5V20.2H49.1z"/>
	</g>
	<g>
		<path class="st1" d="M85.2,41.4V16.9h-3.4c-1.8,0-3.4,1.5-3.4,3.4v17.9c0,1.8,1.5,3.4,3.4,3.4L85.2,41.4L85.2,41.4z"/>
	</g>
	<g>
		<path class="st2" d="M81.8,31.4v10h3.4V29.1h-1.1C82.8,29.1,81.8,30.1,81.8,31.4z"/>
	</g>
	<g>
		<path class="st3" d="M76.3,51.4V28c0-1.2-1-2.2-2.2-2.2H29.4c-1.2,0-2.2,1-2.2,2.2v23.4c0,1.2,1,2.2,2.2,2.2H74
			C75.2,53.6,76.3,52.7,76.3,51.4z"/>
	</g>
	<g>
		<path class="st4" d="M30.5,45.9V33.6c0-0.6,0.5-1.1,1.1-1.1c1.2,0,2.2-1,2.2-2.2c0-0.6,0.5-1.1,1.1-1.1h33.5
			c0.6,0,1.1,0.5,1.1,1.1c0,1.2,1,2.2,2.2,2.2c0.6,0,1.1,0.5,1.1,1.1v12.3c0,0.6-0.5,1.1-1.1,1.1c-1.2,0-2.2,1-2.2,2.2
			c0,0.6-0.5,1.1-1.1,1.1H35c-0.6,0-1.1-0.5-1.1-1.1c0-1.2-1-2.2-2.2-2.2C31.1,47,30.5,46.5,30.5,45.9z"/>
	</g>
	<g>
		<circle class="st3" cx="51.7" cy="39.7" r="8.4"/>
	</g>
	<g>
		<path class="st5" d="M54.9,21.5L44.4,32c-0.9,0.9-0.9,2.3,0,3.2l0.4,0.4c2.6,2.6,6.9,2.6,9.5,0l4.2-4.2h8.9c3.7,0,6.7-3,6.7-6.7
			v-4.5H58C56.9,20.2,55.7,20.7,54.9,21.5z"/>
	</g>
	<g>
		<path class="st0" d="M44.6,31.7c1.3,1.3,3.5,1.3,4.8,0c0.3-0.3,0.3-0.8,0-1.1l-1.8-1.8L44.6,31.7z"/>
	</g>
</g>
</svg>
