<svg viewBox="0 0 112 72" fill="none" xmlns="http://www.w3.org/2000/svg">
<path d="M62.0375 45.0562L61.175 43.9062V45.0562H58.1562V43.0438C57.725 43.1875 57.2937 43.3312 56.8625 43.3312H55.8563V45.0562H51.2563L50.25 43.9062L49.3875 45.0562H41.7687V37.8687H49.3875L50.25 39.0187L51.1125 37.8687H79V13H33V32.4062L34.725 28.3813H37.7437L38.75 30.6812V28.3813H42.4875L43.0625 29.9625L43.6375 28.3813H60.3125V29.2437C60.8875 28.6687 61.75 28.3813 62.7563 28.3813H68.075L69.0812 30.6812V28.3813H72.2438L73.1063 29.675V28.3813H76.2687V35.5688H73.1063L72.2438 34.275V35.5688H67.6437L67.2125 34.4188H65.9188L65.4875 35.5688H62.6125C61.75 35.5688 60.8875 35.2813 60.3125 34.85V35.5688H55.7125L54.5625 34.4188V35.5688H37.3125L36.8813 34.4188H35.5875L35.1562 35.5688H33V59H79V44.4813C78.5687 44.7688 77.9938 45.0562 77.275 45.0562H62.0375Z" fill="#006FCF"/>
<path d="M78.4237 39.8805L78.9987 38.7305H76.1237C74.9737 38.7305 74.2549 39.4492 74.2549 40.4555C74.2549 41.4617 74.9737 42.0367 75.9799 42.0367H77.2737C77.5612 42.0367 77.7049 42.1805 77.7049 42.468C77.7049 42.7555 77.5612 42.8992 77.2737 42.8992H74.3987V44.0492H77.1299C78.2799 44.0492 78.9987 43.3305 78.9987 42.3242C78.9987 41.318 78.4237 40.743 77.2737 40.743H76.1237C75.8362 40.743 75.6924 40.5992 75.6924 40.3117C75.6924 40.0242 75.8362 39.8805 76.1237 39.8805H78.4237ZM70.6612 40.4555C70.6612 40.168 70.8049 40.0242 71.0924 40.0242H73.3924L73.9674 38.8742H71.0924C69.9424 38.8742 69.2237 39.593 69.2237 40.5992C69.2237 41.6055 69.9424 42.1805 70.9487 42.1805H72.2424C72.5299 42.1805 72.6737 42.3242 72.6737 42.6117C72.6737 42.8992 72.5299 43.043 72.2424 43.043H69.3674V44.193H72.0987C73.2487 44.193 73.9674 43.4742 73.9674 42.468C73.9674 41.4617 73.3924 40.8867 72.2424 40.8867H70.9487C70.8049 40.8867 70.6612 40.5992 70.6612 40.4555ZM64.3362 44.193H68.7924V43.043H65.7737V42.1805H68.7924V41.0305H65.7737V40.168H68.7924V39.018H64.3362V44.193ZM64.1924 44.193L62.4674 42.1805C63.3299 42.0367 63.9049 41.318 63.9049 40.4555C63.9049 39.4492 63.1862 38.7305 62.0362 38.7305H59.0174V44.193H60.4549V42.3242H61.0299L62.6112 44.193H64.1924ZM61.7487 41.0305H60.3112V39.8805H61.7487C62.1799 39.8805 62.3237 40.168 62.3237 40.4555C62.4674 40.743 62.1799 41.0305 61.7487 41.0305ZM58.2987 40.5992C58.2987 39.4492 57.5799 38.7305 56.4299 38.7305H53.4112V44.193H54.8487V42.468H56.4299C57.5799 42.3242 58.2987 41.6055 58.2987 40.5992ZM57.0049 40.5992C57.0049 40.8867 56.7174 41.1742 56.4299 41.1742H54.8487V39.8805H56.4299C56.7174 39.8805 57.0049 40.168 57.0049 40.5992ZM53.2674 44.193L51.1112 41.4617L53.2674 38.7305H51.5424L50.2487 40.4555L48.9549 38.7305H47.3737L49.5299 41.4617L47.3737 44.193H49.0987L50.3924 42.468L51.6862 44.193H53.2674ZM42.7737 44.193H47.2299V43.043H44.2112V42.1805H47.2299V41.0305H44.2112V40.168H47.2299V39.018H42.7737V44.193Z" fill="#006FCF"/>
<path d="M74.975 34.7049V29.2424H73.5375V32.5487L71.3812 29.2424H69.6562V34.7049H71.0937V31.2549L73.3937 34.7049H74.975ZM67.9312 34.7049H69.5125L67.2125 29.2424H65.4875L63.1875 34.7049H64.625L65.0562 33.5549H67.5L67.9312 34.7049ZM67.0687 32.4049H65.6312L66.35 30.5362L67.0687 32.4049ZM62.6125 30.5362H64.05V29.2424H62.4687C60.7437 29.2424 59.8812 30.3924 59.8812 31.9737V32.1174C59.8812 33.8424 60.8875 34.8487 62.4687 34.8487H62.6125L63.1875 33.6987H62.7562C61.8937 33.6987 61.3187 33.1237 61.3187 32.2612V32.1174C61.3187 31.1112 61.75 30.5362 62.6125 30.5362ZM57.8687 34.7049H59.3062V32.1174V29.3862H57.8687V32.1174V34.7049ZM57.5812 34.7049L55.8562 32.6924C56.7187 32.5487 57.2937 31.8299 57.2937 30.9674C57.2937 29.9612 56.575 29.2424 55.425 29.2424H52.4062V34.7049H53.8437V32.8362H54.4187L56 34.7049H57.5812ZM55.2812 31.5424H53.8437V30.3924H55.2812C55.7125 30.3924 55.8562 30.6799 55.8562 30.9674C55.8562 31.3987 55.7125 31.5424 55.2812 31.5424ZM47.2312 34.7049H51.6875V33.5549H48.6687V32.6924H51.6875V31.5424H48.6687V30.6799H51.6875V29.5299H47.2312V34.7049ZM44.9312 34.7049H46.225V29.2424H44.0687L42.9187 32.6924L41.7687 29.2424H39.6125V34.7049H40.9062V30.6799L42.3437 34.7049H43.4937L44.9312 30.6799V34.7049ZM37.8875 34.7049H39.4687L37.1688 29.2424H35.4438L33 34.7049H34.4375L34.8687 33.5549H37.3125L37.8875 34.7049ZM36.8812 32.4049H35.4438L36.1625 30.5362L36.8812 32.4049Z" fill="#006FCF"/>
</svg>
