<svg viewBox="0 0 112 72" fill="none" xmlns="http://www.w3.org/2000/svg">
<path d="M65.15 26.29C60.35 26.29 57 28.85 57 32.52C56.92 35.24 59.4 36.68 61.2299 37.64C63.06 38.6 63.79 39.16 63.79 39.95C63.79 41.23 62.27 41.79 60.79 41.79C59.2139 41.8387 57.6504 41.495 56.24 40.79L55.5999 40.55L55 44.75C56.735 45.4073 58.5745 45.7461 60.43 45.75C65.43 45.75 68.82 43.19 68.9 39.28C68.98 37.12 67.62 35.52 64.83 34.16C63.15 33.28 62.11 32.72 62.11 31.85C62.11 30.98 62.99 30.25 64.91 30.25C66.1734 30.1916 67.4322 30.4386 68.58 30.97L69.0599 31.13L69.6999 27C68.2263 26.5403 66.6935 26.2977 65.15 26.28V26.29ZM50.15 26.61L47.15 45.39H52L55 26.61H50.15ZM43.04 26.61L38.22 39.4L37.66 36.84C36.47 33.64 33.91 30.29 30.95 28.93L35.3499 45.39H40.54L48.2099 26.69L43 26.61H43.04ZM78.2699 26.61C77.7351 26.5436 77.1933 26.6569 76.7299 26.9321C76.2665 27.2072 75.9077 27.6286 75.7099 28.13L68.5 45.39H73.5C73.5 45.39 74.38 43.07 74.5 42.51H80.73C80.89 43.15 81.37 45.31 81.37 45.31H86L82.0899 26.53L78.25 26.61H78.2699ZM78.5899 31.73L78.91 33.4C78.91 33.4 79.91 37.88 80.0299 38.84H75.93C76.33 37.72 77.8499 33.56 77.8499 33.56C78.1453 32.9733 78.3863 32.3607 78.57 31.73H78.5899Z" fill="#2A2B6D"/>
<path d="M33.83 26.6101H26V26.9301C32.07 28.5301 36.07 32.3601 37.82 36.8401L36.07 28.2101C35.75 27.0101 34.95 26.6901 33.83 26.6101Z" fill="#F4B41A"/>
</svg>
