<svg id="Layer_1" data-name="Layer 1" xmlns="http://www.w3.org/2000/svg" viewBox="0 0 125.21 36.01"><defs><style>.cls-1,.cls-4,.cls-6,.cls-7,.cls-8{fill:none;}.cls-1{stroke:#cccbcb;stroke-width:0.9px;}.cls-1,.cls-6,.cls-7,.cls-8{stroke-miterlimit:10;}.cls-2{isolation:isolate;font-size:16px;fill:#e42320;font-family:FaricyNew-Light, Faricy New;font-weight:300;}.cls-3{fill:#cccbcb;}.cls-5{fill:#ccc;}.cls-6,.cls-7,.cls-8{stroke:#ccc;}.cls-6{stroke-width:0.5px;}.cls-7{stroke-width:0.8px;}.cls-8{stroke-width:0.7px;}</style></defs><title>streaming-live-tv-en</title><path class="cls-1" d="M141.44,26.23h-2.19V23.54a10.88,10.88,0,0,0,11-2.69,1.09,1.09,0,0,0,0-1.55l-6.18-6.18,2.51-2.51a3.18,3.18,0,0,0,1.41.33,3.28,3.28,0,1,0-3.28-3.28A3.32,3.32,0,0,0,145,9.07l-2.51,2.51L136.35,5.4a1.09,1.09,0,0,0-1.55,0,10.92,10.92,0,0,0,2.27,17.17h0v3.66h-2.19m.74-18.46" transform="translate(-39.02 -3.94)"/><path class="cls-1" d="M161.09,14.22" transform="translate(-39.02 -3.94)"/><path class="cls-1" d="M127.29,9.08l-.64.64a6.37,6.37,0,0,0,0,9l.64.64" transform="translate(-39.02 -3.94)"/><path class="cls-1" d="M125.56,21.09l-.18-.19a9.36,9.36,0,0,1-2.77-6.68h0a9.39,9.39,0,0,1,2.77-6.69l.18-.19" transform="translate(-39.02 -3.94)"/><path class="cls-1" d="M142.31,4.17" transform="translate(-39.02 -3.94)"/><path class="cls-1" d="M155.64,19.06l.64-.64a6.37,6.37,0,0,0,0-9l-.64-.64" transform="translate(-39.02 -3.94)"/><path class="cls-1" d="M157.37,7.05l.18.19a9.36,9.36,0,0,1,2.77,6.68h0a9.39,9.39,0,0,1-2.77,6.69l-.18.19" transform="translate(-39.02 -3.94)"/><g id="Layer_1-2" data-name="Layer 1"><g id="_" data-name=" "><text class="cls-2" transform="translate(61.24 32.29)">+</text></g><g id="Group_6" data-name="Group 6"><rect id="Rectangle-5" class="cls-1" x="74.24" y="22.29" width="50.52" height="11.79" rx="3.37"/><ellipse id="Oval-3" class="cls-3" cx="99.5" cy="28.19" rx="2.44" ry="2.53"/></g></g><g id="Layer_2" data-name="Layer 2"><g id="Group_10" data-name="Group 10"><g id="Group_9_Copy" data-name="Group 9 Copy"><g id="Group_3" data-name="Group 3"><g id="Rectangle"><path class="cls-4" d="M44.53,26.1a1.18,1.18,0,0,1,1.17-1.19h15a1.19,1.19,0,0,1,1.18,1.18h0V37.3H55.06v.62H51.35V37.3H44.53Z" transform="translate(-39.02 -3.94)"/><path class="cls-5" d="M45.77,25.57a.62.62,0,0,0-.62.62V36.68H52v.62h2.47v-.62h6.82V26.15a.62.62,0,0,0-.62-.62H45.77m0-.62H60.7a1.19,1.19,0,0,1,1.18,1.18V37.3H55.06v.62H51.35V37.3H44.53V26.11a1.22,1.22,0,0,1,1.23-1.2Z" transform="translate(-39.02 -3.94)"/></g><g id="Rectangle-2"><path class="cls-4" d="M42.67,36.68h8.68v.62h3.09v-.62h9.3v.63a1.19,1.19,0,0,1-1.15,1.23H43.73a1.07,1.07,0,0,1-1.06-1.23h0Z" transform="translate(-39.02 -3.94)"/><path class="cls-5" d="M43.21,37.6a.67.67,0,0,0,.52.32h7.62V37.3H43.29m11.77,0v.62h7.53c.22,0,.41-.13.52-.62h-8m-12.39,0H63.74a1.22,1.22,0,0,1-1.15,1.25H43.73a1.09,1.09,0,0,1-1.06-1.25h0Z" transform="translate(-39.02 -3.94)"/></g><g id="Group"><path id="Path" class="cls-6" d="M42.05,38.23H40a.72.72,0,0,1-.72-.73V30.91a.71.71,0,0,1,.72-.73h2.89a.72.72,0,0,1,.72.73v5.77" transform="translate(-39.02 -3.94)"/><ellipse id="Oval" class="cls-5" cx="2.42" cy="33.44" rx="0.37" ry="0.38"/></g></g></g><g id="Group_4" data-name="Group 4"><path id="Shape" class="cls-7" d="M87.9,35.75l-25.4-.07" transform="translate(-39.02 -3.94)"/><path id="Shape-2" class="cls-7" d="M59.71,24.29v-9H94.4l.09,10.22" transform="translate(-39.02 -3.94)"/><rect id="Rectangle-3" class="cls-5" x="31.54" y="33.36" width="13.63" height="0.62"/><rect id="Rectangle_Copy_9" data-name="Rectangle Copy 9" class="cls-5" x="36.49" y="32.13" width="4.34" height="1.24"/></g><g id="Group_2" data-name="Group 2"><rect id="Rectangle-4" class="cls-8" x="49.81" y="21.9" width="8.67" height="11.77" rx="0.84"/><circle id="Oval-2" class="cls-5" cx="54.31" cy="32.22" r="0.56"/></g></g></g></svg>